{"title":"NOVA.Fire.Wars.2002.iNTERNAL.DVDRip.XviD-EXViDiNT","uid":8300879,"size":1509690402,"categoryP":"video","categoryS":"movies","magnet":"?xt=urn:btih:121f161c8c1fd1160964fbe2016f0185b3cb6f64&amp;dn=NOVA.Fire.Wars.2002.iNTERNAL.DVDRip.XviD-EXViDiNT&amp;tr=udp%3A%2F%2Ftracker.openbittorrent.com%3A80&amp;tr=udp%3A%2F%2Fopen.demonii.com%3A1337&amp;tr=udp%3A%2F%2Ftracker.coppersurfer.tk%3A6969&amp;tr=udp%3A%2F%2Fexodus.desync.com%3A6969","seeders":0,"leechers":1,"uploader":"sceneline","files":107,"time":1364266920,"description":"-\n &lt;a href=&quot;\nhttp://www.Speed.&quot; rel=&quot;nofollow&quot; target=&quot;_NEW&quot;&gt;\nhttp://www.Speed.&lt;/a&gt; Cd       the fast  and The Hottest Private Tracker on the net &lt;a href=&quot;\nhttp://www.Speed.&quot; rel=&quot;nofollow&quot; target=&quot;_NEW&quot;&gt;\nhttp://www.Speed.&lt;/a&gt; Cd\n\nPlease Seed back to make the speed Faster!!\n ............ NFO .............\n-\n &lt;a href=&quot;\nhttp://www.Speed.&quot; rel=&quot;nofollow&quot; target=&quot;_NEW&quot;&gt;\nhttp://www.Speed.&lt;/a&gt; Cd                                                                                                     \n       \n     \n     \n       \n       \n     \n     \n                                         \n                                         \n                EXVID                    \n                                         \n         \n                                         \n         Filled the Archives             \n                                         \n         \n                                         \n                With:                    \n                                         \n         \n                                         \n                                    \n     E240                           \n                                    \n     SP               (C) 2009      \n                                         \n     \n     \n     \n                                                                                  \n                                                                                   \n                                                                                    \n                                                                                   \n                                                                                  \n   \n\nNOVA.Fire.Wars.2002.iNTERNAL.DVDRip.XviD-EXViDiNT\n                                                                                               \nEXViD aims to iNTERNAL those releases which have been lost in the archives.\nEXViD aims to PRE non-internal releases which have poor sources and are likely skipped by others. &lt;a href=&quot;\nhttp://www.imdb.com/title/tt0976867/&quot; rel=&quot;nofollow&quot; target=&quot;_NEW&quot;&gt;\nhttp://www.imdb.com/title/tt0976867/&lt;/a&gt;\nSubtitles: None\nDate: 01.13\n\nGenre: Docu\nPlot: Every year, thousands of men and women wage America's war on fire in our majestic \nwildlands. Armed with special training and the best technology, and with their hearts full \nof determination, they battle the blazes. But in spite of all their efforts, we are not \nwinning the fire wars. In the year 2000 alone, wildfires ignited over six million acres \nacross the United States, destroying homes, scorching lives--and burning through over $1 \nbillion in firefighting costs. And years of fire suppression have left a dangerous legacy: \nforest conditions that lead to more catastrophic fires than ever before. Now, the firefighting \ncommunity is asking new questions: can we win, if we only fight fire as a war? Should we \nfight all fires? Ecologists point to another side of fire--as one of the key elements in \nhealthy ecosystems, necessary and revitalizing. What would happen to our forests if we \ndid eliminate all wildfires?To find out what's wrong with America's war on wildfires, \ntravel to the fire line with the Arrowhead Hotshots, a top firefighting team pushed to \nits limit in &quot;the fire summer from hell.&quot; Take the first jump with a group of rookie \nsmokejumpers training to fight fires in remote terrains. Trace the dramatic and often \ntragic history of American wildfires. See how deliberately set &quot;prescribed fires&quot; may \nhelp America avoid out-of-control blazes--or may lead to disasters like the fire that \nburned Los Alamos, New Mexico. And explore the science of fire, from the smallest burning \nmatch to uncontrollable, landscape-sized conflagrations. Fire Wars offers an up-close \nlook at the war on wildfire--a war so intense, you can feel the heat.\n\nStats:\nGeneral\nFormat                           : AVI\nFormat/Info                      : Audio Video Interleave\nFile size                        : 1.36 GiB\nDuration                         : 1h 54mn\nOverall bit rate                 : 1 700 Kbps\nWriting application              : VirtualDubMod 1.5.10.2 (build 2542/release)\nWriting library                  : VirtualDubMod build 2542/release\n\nVideo\nID                               : 0\nFormat                           : MPEG-4 Visual\nFormat profile                   : Advanced Simple@L5\nFormat settings, BVOP            : Yes\nFormat settings, QPel            : No\nFormat settings, GMC             : No warppoints\nFormat settings, Matrix          : Default (H.263)\nCodec ID                         : XVID\nCodec ID/Hint                    : XviD\nDuration                         : 1h 54mn\nBit rate                         : 1 465 Kbps\nWidth                            : 624 pixels\nHeight                           : 464 pixels\nDisplay aspect ratio             : 4:3\nFrame rate                       : 29.970 fps\nResolution                       : 8 bits\nColorimetry                      : 4:2:0\nScan type                        : Progressive\nBits/(Pixel*Frame)               : 0.169\nStream size                      : 1.17 GiB (86%)\nWriting library                  : XviD 61\n\nAudio\nID                               : 1\nFormat                           : AC-3\nFormat/Info                      : Audio Coding 3\nFormat_Settings_ModeExtension    : CM (complete main)\nCodec ID                         : 2000\nDuration                         : 1h 54mn\nBit rate mode                    : Constant\nBit rate                         : 224 Kbps\nChannel(s)                       : 2 channels\nChannel positions                : Front: L R\nSampling rate                    : 48.0 KHz\nStream size                      : 184 MiB (13%)\nAlignment                        : Split accross interleaves\nInterleave, duration             : 33 ms (1.00 video frame)\nInterleave, preload duration     : 500 ms\n\n\n\n\nRelease notes:\nenjoy!\n\nLooking for:\n75TB+ Archives\n                                                                                                    \nGreets: CRBS EPiSODE FiCO FLS iLS KLASSiGER LiPSYNC MADE NODLABS RUNNER SPRiNTER\n   \n\n                                                                    ASCII DONE BY XX^NFO 2oo9     \n \n\nRLS-Crc: 43414E445953484F50:9E","torrent":{"xt":"urn:btih:121f161c8c1fd1160964fbe2016f0185b3cb6f64","amp;dn":"NOVA.Fire.Wars.2002.iNTERNAL.DVDRip.XviD-EXViDiNT","amp;tr":["udp%3A%2F%2Ftracker.openbittorrent.com%3A80","udp%3A%2F%2Fopen.demonii.com%3A1337","udp%3A%2F%2Ftracker.coppersurfer.tk%3A6969","udp%3A%2F%2Fexodus.desync.com%3A6969"],"infoHash":"121f161c8c1fd1160964fbe2016f0185b3cb6f64","infoHashBuffer":{"type":"Buffer","data":[18,31,22,28,140,31,209,22,9,100,251,226,1,111,1,133,179,203,111,100]},"announce":[],"urlList":[]}}